<svg xmlns="http://www.w3.org/2000/svg" viewBox="0 0 900 1200">
  <defs>
    <linearGradient id="bg-porcelain" x1="0" y1="0" x2="0" y2="1">
      <stop offset="0%" stop-color="#160F0C"/>
      <stop offset="100%" stop-color="#2A1B16"/>
    </linearGradient>
    <radialGradient id="halo-porcelain" cx="50%" cy="28%" r="60%">
      <stop offset="0%" stop-color="#D6ECE7" stop-opacity="0.9"/>
      <stop offset="100%" stop-color="#D6ECE7" stop-opacity="0"/>
    </radialGradient>
  </defs>
  <rect width="900" height="1200" rx="56" fill="url(#bg-porcelain)"/>
  <rect x="28" y="28" width="844" height="1144" rx="40" fill="none" stroke="#5D827E" stroke-opacity="0.5" stroke-width="4"/>
  <circle cx="450" cy="360" r="240" fill="url(#halo-porcelain)"/>
  <ellipse cx="450" cy="390" rx="180" ry="196" fill="#5D827E" fill-opacity="0.2" stroke="#5D827E" stroke-width="6"/>
  <circle cx="450" cy="322" r="102" fill="#5D827E" fill-opacity="0.32"/>
  <path d="M290 842c54-156 126-222 160-222 41 0 120 73 160 222" fill="#5D827E" fill-opacity="0.22" stroke="#5D827E" stroke-width="6" stroke-linecap="round"/>
  <path d="M338 330c24-58 80-98 112-98 38 0 88 38 112 98" fill="none" stroke="#5D827E" stroke-width="16" stroke-linecap="round"/>
  <circle cx="406" cy="330" r="10" fill="#F7EFDF"/>
  <circle cx="494" cy="330" r="10" fill="#F7EFDF"/>
  <path d="M405 394c28 16 60 16 88 0" fill="none" stroke="#F7EFDF" stroke-opacity="0.72" stroke-width="8" stroke-linecap="round"/>
  <path d="M228 934h444" stroke="#5D827E" stroke-width="4" stroke-opacity="0.45"/>
  <text x="86" y="984" fill="#F9EFD8" font-size="76" font-family="Microsoft YaHei" font-weight="700">瓷娃娃群</text>
  <text x="86" y="1050" fill="#D6ECE7" font-size="34" font-family="Microsoft YaHei">鬼神领域群体</text>
  <text x="86" y="1124" fill="#C9B28D" font-size="28" font-family="Microsoft YaHei">人变瓷，群体行动，恐惧与仇恨纠缠</text>
</svg>
