<svg xmlns="http://www.w3.org/2000/svg" viewBox="0 0 900 1200">
  <defs>
    <linearGradient id="bg-ziyi" x1="0" y1="0" x2="0" y2="1">
      <stop offset="0%" stop-color="#160F0C"/>
      <stop offset="100%" stop-color="#2A1B16"/>
    </linearGradient>
    <radialGradient id="halo-ziyi" cx="50%" cy="28%" r="60%">
      <stop offset="0%" stop-color="#DED3F2" stop-opacity="0.9"/>
      <stop offset="100%" stop-color="#DED3F2" stop-opacity="0"/>
    </radialGradient>
  </defs>
  <rect width="900" height="1200" rx="56" fill="url(#bg-ziyi)"/>
  <rect x="28" y="28" width="844" height="1144" rx="40" fill="none" stroke="#6A4AA1" stroke-opacity="0.5" stroke-width="4"/>
  <circle cx="450" cy="360" r="240" fill="url(#halo-ziyi)"/>
  <ellipse cx="450" cy="390" rx="180" ry="196" fill="#6A4AA1" fill-opacity="0.2" stroke="#6A4AA1" stroke-width="6"/>
  <circle cx="450" cy="322" r="102" fill="#6A4AA1" fill-opacity="0.32"/>
  <path d="M290 842c54-156 126-222 160-222 41 0 120 73 160 222" fill="#6A4AA1" fill-opacity="0.22" stroke="#6A4AA1" stroke-width="6" stroke-linecap="round"/>
  <path d="M338 330c24-58 80-98 112-98 38 0 88 38 112 98" fill="none" stroke="#6A4AA1" stroke-width="16" stroke-linecap="round"/>
  <circle cx="406" cy="330" r="10" fill="#F7EFDF"/>
  <circle cx="494" cy="330" r="10" fill="#F7EFDF"/>
  <path d="M405 394c28 16 60 16 88 0" fill="none" stroke="#F7EFDF" stroke-opacity="0.72" stroke-width="8" stroke-linecap="round"/>
  <path d="M228 934h444" stroke="#6A4AA1" stroke-width="4" stroke-opacity="0.45"/>
  <text x="86" y="984" fill="#F9EFD8" font-size="76" font-family="Microsoft YaHei" font-weight="700">紫衣女子</text>
  <text x="86" y="1050" fill="#DED3F2" font-size="34" font-family="Microsoft YaHei">世家代表 / 第一阶段 Boss</text>
  <text x="86" y="1124" fill="#C9B28D" font-size="28" font-family="Microsoft YaHei">温和外表下的规则剥削者</text>
</svg>
