<svg xmlns="http://www.w3.org/2000/svg" viewBox="0 0 1600 900">
  <defs>
    <linearGradient id="scene-cauldron" x1="0" y1="0" x2="0" y2="1">
      <stop offset="0%" stop-color="#160F0C"/>
      <stop offset="100%" stop-color="#281A15"/>
    </linearGradient>
    <linearGradient id="mist-cauldron" x1="0" y1="0" x2="1" y2="1">
      <stop offset="0%" stop-color="#E9C8B0" stop-opacity="0.95"/>
      <stop offset="100%" stop-color="#A94E2A" stop-opacity="0.2"/>
    </linearGradient>
  </defs>
  <rect width="1600" height="900" fill="url(#scene-cauldron)"/>
  <rect x="34" y="34" width="1532" height="832" rx="36" fill="none" stroke="#E9C8B0" stroke-opacity="0.38" stroke-width="4"/>
  <ellipse cx="1110" cy="184" rx="280" ry="160" fill="url(#mist-cauldron)"/>
  <rect x="100" y="124" width="630" height="170" rx="30" fill="#111111" fill-opacity="0.2"/>
  <text x="140" y="212" fill="#F7EFDF" font-size="84" font-family="Microsoft YaHei" font-weight="700">药缸房</text>
  <text x="142" y="278" fill="#E9C8B0" font-size="34" font-family="Microsoft YaHei">火光、蒸汽、黑锅、危险警告</text>
  <ellipse cx="522" cy="244" rx="178" ry="114" fill="#A94E2A" fill-opacity="0.3"/>
         <rect x="160" y="404" width="520" height="136" rx="30" fill="#8A3320" fill-opacity="0.2"/>
         <path d="M254 546c28-96 84-178 112-178 34 0 76 66 106 174M484 548c20-90 60-172 88-172 34 0 82 72 110 176" fill="none" stroke="#A94E2A" stroke-width="18" stroke-linecap="round"/>
  <rect x="0" y="676" width="1600" height="224" fill="#120C0A" fill-opacity="0.62"/>
</svg>
